# Blender v2.83.0 OBJ File: ''
# www.blender.org
mtllib zephyr.mtl
o Head
v -0.134678 2.299590 -0.106256
v -0.019164 2.020715 -0.025375
v -0.153249 2.344424 0.074855
v -0.037735 2.065549 0.155736
v 0.019979 2.416177 0.074855
v 0.135493 2.137303 0.155736
v 0.038550 2.371343 -0.106256
v 0.154064 2.092468 -0.025375
v -0.218750 1.887770 -0.109375
v -0.218750 1.387770 -0.109375
v -0.218750 1.887770 0.328125
v -0.218750 1.387770 0.328125
v 0.218750 1.887770 0.328125
v 0.218750 1.387770 0.328125
v 0.218750 1.887770 -0.109375
v 0.218750 1.387770 -0.109375
v -0.128143 2.107298 -0.105966
v -0.154452 1.806595 -0.025085
v -0.121094 2.187871 0.195886
v -0.147402 1.887168 0.276767
v 0.190217 2.160635 0.195886
v 0.163909 1.859932 0.276767
v 0.183167 2.080062 -0.105966
v 0.156859 1.779359 -0.025085
vt 0.484497 0.703003
vt 0.484497 0.664185
vt 0.507690 0.703003
vt 0.507690 0.664185
vt 0.531372 0.703003
vt 0.531372 0.664185
vt 0.554565 0.703003
vt 0.554565 0.664185
vt 0.531128 0.703247
vt 0.531128 0.726440
vt 0.507935 0.703247
vt 0.507935 0.726440
vt 0.554565 0.726440
vt 0.554565 0.703247
vt 0.531372 0.726440
vt 0.531372 0.703247
vt 0.554810 0.703003
vt 0.554810 0.664185
vt 0.578003 0.703003
vt 0.578003 0.664185
vt 0.507935 0.703003
vt 0.507935 0.664185
vt 0.531128 0.703003
vt 0.531128 0.664185
vt 0.000122 0.632690
vt 0.000122 0.570435
vt 0.054565 0.632690
vt 0.054565 0.570435
vt 0.109497 0.632690
vt 0.109497 0.570435
vt 0.163940 0.632690
vt 0.163940 0.570435
vt 0.109253 0.632935
vt 0.109253 0.687378
vt 0.054810 0.632935
vt 0.054810 0.687378
vt 0.163940 0.687378
vt 0.163940 0.632935
vt 0.109497 0.687378
vt 0.109497 0.632935
vt 0.164185 0.632690
vt 0.164185 0.570435
vt 0.218628 0.632690
vt 0.218628 0.570435
vt 0.054810 0.632690
vt 0.054810 0.570435
vt 0.109253 0.632690
vt 0.109253 0.570435
vt 0.414185 0.765503
vt 0.414185 0.726685
vt 0.453003 0.765503
vt 0.453003 0.726685
vt 0.492310 0.765503
vt 0.492310 0.726685
vt 0.531128 0.765503
vt 0.531128 0.726685
vt 0.492065 0.765747
vt 0.492065 0.804565
vt 0.453247 0.765747
vt 0.453247 0.804565
vt 0.531128 0.804565
vt 0.531128 0.765747
vt 0.492310 0.804565
vt 0.492310 0.765747
vt 0.531372 0.765503
vt 0.531372 0.726685
vt 0.570190 0.765503
vt 0.570190 0.726685
vt 0.453247 0.765503
vt 0.453247 0.726685
vt 0.492065 0.765503
vt 0.492065 0.726685
vn -0.9239 -0.3827 0.0000
vn 0.9239 0.3827 -0.0000
vn -0.3696 0.8924 -0.2588
vn 0.3696 -0.8924 0.2588
vn 0.0990 -0.2391 -0.9659
vn -0.0990 0.2391 0.9659
vn -1.0000 0.0000 0.0000
vn 1.0000 0.0000 -0.0000
vn 0.0000 1.0000 0.0000
vn 0.0000 -1.0000 0.0000
vn -0.0000 -0.0000 -1.0000
vn 0.0000 0.0000 1.0000
vn -0.9962 0.0872 0.0000
vn 0.9962 -0.0872 -0.0000
vn 0.0842 0.9622 -0.2588
vn 0.0842 0.9623 -0.2588
vn -0.0842 -0.9622 0.2588
vn -0.0842 -0.9623 0.2588
vn -0.0226 -0.2578 -0.9659
vn 0.0226 0.2578 0.9659
usemtl m_4
s 1
f 1/1/1 2/2/1 3/3/1
f 2/2/1 4/4/1 3/3/1
f 5/5/2 6/6/2 7/7/2
f 6/6/2 8/8/2 7/7/2
f 5/9/3 7/10/3 3/11/3
f 7/10/3 1/12/3 3/11/3
f 8/13/4 6/14/4 2/15/4
f 6/14/4 4/16/4 2/15/4
f 7/17/5 8/18/5 1/19/5
f 8/18/5 2/20/5 1/19/5
f 3/21/6 4/22/6 5/23/6
f 4/22/6 6/24/6 5/23/6
f 9/25/7 10/26/7 11/27/7
f 10/26/7 12/28/7 11/27/7
f 13/29/8 14/30/8 15/31/8
f 14/30/8 16/32/8 15/31/8
f 13/33/9 15/34/9 11/35/9
f 15/34/9 9/36/9 11/35/9
f 16/37/10 14/38/10 10/39/10
f 14/38/10 12/40/10 10/39/10
f 15/41/11 16/42/11 9/43/11
f 16/42/11 10/44/11 9/43/11
f 11/45/12 12/46/12 13/47/12
f 12/46/12 14/48/12 13/47/12
f 17/49/13 18/50/13 19/51/13
f 18/50/13 20/52/13 19/51/13
f 21/53/14 22/54/14 23/55/14
f 22/54/14 24/56/14 23/55/14
f 21/57/15 23/58/15 19/59/15
f 23/58/15 17/60/16 19/59/15
f 24/61/17 22/62/18 18/63/18
f 22/62/18 20/64/18 18/63/18
f 23/65/19 24/66/19 17/67/19
f 24/66/19 18/68/19 17/67/19
f 19/69/20 20/70/20 21/71/20
f 20/70/20 22/72/20 21/71/20
o HeadRibbon
v -0.207366 2.107460 -0.183157
v -0.260193 1.869171 -0.129047
v -0.183943 2.213114 0.304991
v -0.236770 1.974826 0.359101
v 0.304205 2.104895 0.304991
v 0.251378 1.866606 0.359101
v 0.280782 1.999240 -0.183157
v 0.227955 1.760951 -0.129047
vt 0.000122 0.734253
vt 0.000122 0.703247
vt 0.062378 0.734253
vt 0.062378 0.703247
vt 0.125122 0.734253
vt 0.125122 0.703247
vt 0.187378 0.734253
vt 0.187378 0.703247
vt 0.124878 0.734497
vt 0.124878 0.796753
vt 0.062622 0.734497
vt 0.062622 0.796753
vt 0.187378 0.796753
vt 0.187378 0.734497
vt 0.125122 0.796753
vt 0.125122 0.734497
vt 0.187622 0.734253
vt 0.187622 0.703247
vt 0.249878 0.734253
vt 0.249878 0.703247
vt 0.062622 0.734253
vt 0.062622 0.703247
vt 0.124878 0.734253
vt 0.124878 0.703247
vn -0.9763 0.2164 0.0000
vn 0.9763 -0.2164 -0.0000
vn 0.2113 0.9532 -0.2164
vn -0.2113 -0.9532 0.2164
vn -0.0468 -0.2113 -0.9763
vn 0.0468 0.2113 0.9763
usemtl m_4
s 1
f 25/73/21 26/74/21 27/75/21
f 26/74/21 28/76/21 27/75/21
f 29/77/22 30/78/22 31/79/22
f 30/78/22 32/80/22 31/79/22
f 29/81/23 31/82/23 27/83/23
f 31/82/23 25/84/23 27/83/23
f 32/85/24 30/86/24 26/87/24
f 30/86/24 28/88/24 26/87/24
f 31/89/25 32/90/25 25/91/25
f 32/90/25 26/92/25 25/91/25
f 27/93/26 28/94/26 29/95/26
f 28/94/26 30/96/26 29/95/26
o Body
v 0.313606 1.617029 -0.125082
v 0.163606 1.410909 -0.283243
v 0.313606 1.358305 0.212093
v 0.163606 1.152186 0.053932
v 0.519287 1.264094 0.139802
v 0.369287 1.057975 -0.018358
v 0.519287 1.522818 -0.197373
v 0.369287 1.316699 -0.355534
v -0.181283 0.910136 -0.298853
v -0.196002 0.570145 -0.456379
v -0.142382 0.778401 -0.018160
v -0.157101 0.438410 -0.175686
v 0.167445 0.783725 -0.058601
v 0.152726 0.443734 -0.216126
v 0.128543 0.915460 -0.339294
v 0.113824 0.575469 -0.496819
v -0.156819 0.526469 -0.311665
v -0.102884 0.256503 -0.566292
v -0.013342 0.460061 -0.210865
v 0.040593 0.190096 -0.465492
v 0.104315 0.571980 -0.304605
v 0.158251 0.302015 -0.559231
v -0.039162 0.638388 -0.405404
v 0.014773 0.368423 -0.660031
v -0.312500 1.621285 -0.129694
v -0.312500 1.373362 -0.319932
v -0.312500 1.354952 0.217398
v -0.312500 1.107029 0.027160
v 0.312500 1.354952 0.217398
v 0.312500 1.107029 0.027160
v 0.312500 1.621285 -0.129695
v 0.312500 1.373362 -0.319932
v -0.519287 1.522818 -0.197373
v -0.369287 1.316699 -0.355534
v -0.519287 1.264094 0.139802
v -0.369287 1.057975 -0.018358
v -0.313606 1.358305 0.212093
v -0.163606 1.152186 0.053932
v -0.313606 1.617029 -0.125082
v -0.163606 1.410909 -0.283243
v -0.250000 1.375035 -0.317752
v -0.250000 0.817347 -0.391173
v -0.250000 1.326087 0.054040
v -0.250000 0.768400 -0.019381
v 0.250000 1.326087 0.054039
v 0.250000 0.768400 -0.019381
v 0.250000 1.375035 -0.317752
v 0.250000 0.817347 -0.391173
vt 0.390747 0.867065
vt 0.390747 0.828247
vt 0.445190 0.867065
vt 0.445190 0.828247
vt 0.476685 0.867065
vt 0.476685 0.828247
vt 0.531128 0.867065
vt 0.531128 0.828247
vt 0.476440 0.867310
vt 0.476440 0.921753
vt 0.445435 0.867310
vt 0.445435 0.921753
vt 0.507690 0.921753
vt 0.507690 0.867310
vt 0.476685 0.921753
vt 0.476685 0.867310
vt 0.531372 0.867065
vt 0.531372 0.828247
vt 0.562378 0.867065
vt 0.562378 0.828247
vt 0.445435 0.867065
vt 0.445435 0.828247
vt 0.476440 0.867065
vt 0.476440 0.828247
vt 0.367310 0.554565
vt 0.367310 0.507935
vt 0.406128 0.554565
vt 0.406128 0.507935
vt 0.445435 0.554565
vt 0.445435 0.507935
vt 0.484253 0.554565
vt 0.484253 0.507935
vt 0.445190 0.554810
vt 0.445190 0.593628
vt 0.406372 0.554810
vt 0.406372 0.593628
vt 0.484253 0.593628
vt 0.484253 0.554810
vt 0.445435 0.593628
vt 0.445435 0.554810
vt 0.484497 0.554565
vt 0.484497 0.507935
vt 0.523315 0.554565
vt 0.523315 0.507935
vt 0.406372 0.554565
vt 0.406372 0.507935
vt 0.445190 0.554565
vt 0.445190 0.507935
vt 0.281372 0.507690
vt 0.281372 0.461060
vt 0.304565 0.507690
vt 0.304565 0.461060
vt 0.328247 0.507690
vt 0.328247 0.461060
vt 0.351440 0.507690
vt 0.351440 0.461060
vt 0.328003 0.507935
vt 0.328003 0.531128
vt 0.304810 0.507935
vt 0.304810 0.531128
vt 0.351440 0.531128
vt 0.351440 0.507935
vt 0.328247 0.531128
vt 0.328247 0.507935
vt 0.351685 0.507690
vt 0.351685 0.461060
vt 0.374878 0.507690
vt 0.374878 0.461060
vt 0.304810 0.507690
vt 0.304810 0.461060
vt 0.328003 0.507690
vt 0.328003 0.461060
vt 0.000122 0.835815
vt 0.000122 0.796997
vt 0.054565 0.835815
vt 0.054565 0.796997
vt 0.132935 0.835815
vt 0.132935 0.796997
vt 0.187378 0.835815
vt 0.187378 0.796997
vt 0.132690 0.836060
vt 0.132690 0.890503
vt 0.054810 0.836060
vt 0.054810 0.890503
vt 0.210815 0.890503
vt 0.210815 0.836060
vt 0.132935 0.890503
vt 0.132935 0.836060
vt 0.187622 0.835815
vt 0.187622 0.796997
vt 0.265503 0.835815
vt 0.265503 0.796997
vt 0.054810 0.835815
vt 0.054810 0.796997
vt 0.132690 0.835815
vt 0.132690 0.796997
vt 0.367310 0.632690
vt 0.367310 0.593872
vt 0.421753 0.632690
vt 0.421753 0.593872
vt 0.453247 0.632690
vt 0.453247 0.593872
vt 0.507690 0.632690
vt 0.507690 0.593872
vt 0.453003 0.632935
vt 0.453003 0.687378
vt 0.421997 0.632935
vt 0.421997 0.687378
vt 0.484253 0.687378
vt 0.484253 0.632935
vt 0.453247 0.687378
vt 0.453247 0.632935
vt 0.507935 0.632690
vt 0.507935 0.593872
vt 0.538940 0.632690
vt 0.538940 0.593872
vt 0.421997 0.632690
vt 0.421997 0.593872
vt 0.453003 0.632690
vt 0.453003 0.593872
vt 0.203247 0.703003
vt 0.203247 0.632935
vt 0.249878 0.703003
vt 0.249878 0.632935
vt 0.312622 0.703003
vt 0.312622 0.632935
vt 0.359253 0.703003
vt 0.359253 0.632935
vt 0.312378 0.703247
vt 0.312378 0.749878
vt 0.250122 0.703247
vt 0.250122 0.749878
vt 0.374878 0.749878
vt 0.374878 0.703247
vt 0.312622 0.749878
vt 0.312622 0.703247
vt 0.359497 0.703003
vt 0.359497 0.632935
vt 0.421753 0.703003
vt 0.421753 0.632935
vt 0.250122 0.703003
vt 0.250122 0.632935
vt 0.312378 0.703003
vt 0.312378 0.632935
vn -0.8660 0.3967 0.3044
vn 0.8660 -0.3967 -0.3044
vn 0.5000 0.6871 0.5272
vn -0.5000 -0.6871 -0.5272
vn -0.0000 0.6088 -0.7934
vn 0.0000 -0.6088 0.7934
vn -0.9914 -0.0170 0.1294
vn 0.9914 0.0170 -0.1294
vn 0.0393 0.9066 0.4201
vn -0.0393 -0.9066 -0.4201
vn -0.1245 0.4216 -0.8982
vn 0.1245 -0.4216 0.8982
vn -0.6275 -0.5969 0.4999
vn 0.6275 0.5969 -0.4999
vn -0.1438 0.7199 0.6790
vn 0.1438 -0.7199 -0.6790
vn -0.7652 0.3542 -0.5376
vn 0.7652 -0.3542 0.5376
vn -1.0000 0.0000 0.0000
vn 1.0000 -0.0000 -0.0000
vn 0.0000 0.7934 0.6088
vn -0.0000 -0.7934 -0.6088
vn -0.8660 -0.3967 -0.3044
vn 0.8660 0.3967 0.3044
vn -0.5000 0.6871 0.5272
vn 0.5000 -0.6871 -0.5272
vn 0.0000 0.9914 0.1305
vn -0.0000 -0.9914 -0.1305
vn -0.0000 0.1305 -0.9914
vn 0.0000 -0.1305 0.9914
usemtl m_4
s 1
f 33/97/27 34/98/27 35/99/27
f 34/98/27 36/100/27 35/99/27
f 37/101/28 38/102/28 39/103/28
f 38/102/28 40/104/28 39/103/28
f 37/105/29 39/106/29 35/107/29
f 39/106/29 33/108/29 35/107/29
f 40/109/30 38/110/30 34/111/30
f 38/110/30 36/112/30 34/111/30
f 39/113/31 40/114/31 33/115/31
f 40/114/31 34/116/31 33/115/31
f 35/117/32 36/118/32 37/119/32
f 36/118/32 38/120/32 37/119/32
f 41/121/33 42/122/33 43/123/33
f 42/122/33 44/124/33 43/123/33
f 45/125/34 46/126/34 47/127/34
f 46/126/34 48/128/34 47/127/34
f 45/129/35 47/130/35 43/131/35
f 47/130/35 41/132/35 43/131/35
f 48/133/36 46/134/36 42/135/36
f 46/134/36 44/136/36 42/135/36
f 47/137/37 48/138/37 41/139/37
f 48/138/37 42/140/37 41/139/37
f 43/141/38 44/142/38 45/143/38
f 44/142/38 46/144/38 45/143/38
f 49/145/39 50/146/39 51/147/39
f 50/146/39 52/148/39 51/147/39
f 53/149/40 54/150/40 55/151/40
f 54/150/40 56/152/40 55/151/40
f 53/153/41 55/154/41 51/155/41
f 55/154/41 49/156/41 51/155/41
f 56/157/42 54/158/42 50/159/42
f 54/158/42 52/160/42 50/159/42
f 55/161/43 56/162/43 49/163/43
f 56/162/43 50/164/43 49/163/43
f 51/165/44 52/166/44 53/167/44
f 52/166/44 54/168/44 53/167/44
f 57/169/45 58/170/45 59/171/45
f 58/170/45 60/172/45 59/171/45
f 61/173/46 62/174/46 63/175/46
f 62/174/46 64/176/46 63/175/46
f 61/177/47 63/178/47 59/179/47
f 63/178/47 57/180/47 59/179/47
f 64/181/48 62/182/48 58/183/48
f 62/182/48 60/184/48 58/183/48
f 63/185/31 64/186/31 57/187/31
f 64/186/31 58/188/31 57/187/31
f 59/189/32 60/190/32 61/191/32
f 60/190/32 62/192/32 61/191/32
f 65/193/49 66/194/49 67/195/49
f 66/194/49 68/196/49 67/195/49
f 69/197/50 70/198/50 71/199/50
f 70/198/50 72/200/50 71/199/50
f 69/201/51 71/202/51 67/203/51
f 71/202/51 65/204/51 67/203/51
f 72/205/52 70/206/52 66/207/52
f 70/206/52 68/208/52 66/207/52
f 71/209/31 72/210/31 65/211/31
f 72/210/31 66/212/31 65/211/31
f 67/213/32 68/214/32 69/215/32
f 68/214/32 70/216/32 69/215/32
f 73/217/45 74/218/45 75/219/45
f 74/218/45 76/220/45 75/219/45
f 77/221/46 78/222/46 79/223/46
f 78/222/46 80/224/46 79/223/46
f 77/225/53 79/226/53 75/227/53
f 79/226/53 73/228/53 75/227/53
f 80/229/54 78/230/54 74/231/54
f 78/230/54 76/232/54 74/231/54
f 79/233/55 80/234/55 73/235/55
f 80/234/55 74/236/55 73/235/55
f 75/237/56 76/238/56 77/239/56
f 76/238/56 78/240/56 77/239/56
o BodyRibbon
v -0.391009 1.245411 -0.445136
v -0.347597 1.001315 -0.477272
v -0.391009 1.163832 0.174517
v -0.347597 0.919736 0.142381
v 0.347597 1.292954 0.191516
v 0.391009 1.048858 0.159380
v 0.347597 1.374532 -0.428137
v 0.391009 1.130437 -0.460273
v -0.188950 0.827405 -0.504879
v -0.249753 0.613589 -0.619271
v -0.233211 0.602308 -0.060613
v -0.294013 0.388491 -0.175005
v 0.249752 0.474005 -0.077504
v 0.188950 0.260189 -0.191896
v 0.294013 0.699103 -0.521770
v 0.233210 0.485286 -0.636162
vt 0.000122 0.921753
vt 0.000122 0.890747
vt 0.078003 0.921753
vt 0.078003 0.890747
vt 0.171997 0.921753
vt 0.171997 0.890747
vt 0.249878 0.921753
vt 0.249878 0.890747
vt 0.171753 0.921997
vt 0.171753 0.999878
vt 0.078247 0.921997
vt 0.078247 0.999878
vt 0.265503 0.999878
vt 0.265503 0.921997
vt 0.171997 0.999878
vt 0.171997 0.921997
vt 0.250122 0.921753
vt 0.250122 0.890747
vt 0.343628 0.921753
vt 0.343628 0.890747
vt 0.078247 0.921753
vt 0.078247 0.890747
vt 0.171753 0.921753
vt 0.171753 0.890747
vt 0.531372 0.828003
vt 0.531372 0.796997
vt 0.593628 0.828003
vt 0.593628 0.796997
vt 0.656372 0.828003
vt 0.656372 0.796997
vt 0.718628 0.828003
vt 0.718628 0.796997
vt 0.656128 0.828247
vt 0.656128 0.890503
vt 0.593872 0.828247
vt 0.593872 0.890503
vt 0.718628 0.890503
vt 0.718628 0.828247
vt 0.656372 0.890503
vt 0.656372 0.828247
vt 0.718872 0.828003
vt 0.718872 0.796997
vt 0.781128 0.828003
vt 0.781128 0.796997
vt 0.593872 0.828003
vt 0.593872 0.796997
vt 0.656128 0.828003
vt 0.656128 0.796997
vn -0.9848 -0.1722 -0.0227
vn 0.9848 0.1722 0.0227
vn -0.1736 0.9764 0.1285
vn 0.1736 -0.9764 -0.1285
vn -0.0000 0.1305 -0.9914
vn 0.0000 -0.1305 0.9914
vn -0.9659 0.2566 0.0338
vn 0.9659 -0.2566 -0.0338
vn 0.2432 0.8553 0.4576
vn -0.2432 -0.8553 -0.4576
vn 0.0885 0.4502 -0.8885
vn -0.0885 -0.4502 0.8885
usemtl m_4
s 1
f 81/241/57 82/242/57 83/243/57
f 82/242/57 84/244/57 83/243/57
f 85/245/58 86/246/58 87/247/58
f 86/246/58 88/248/58 87/247/58
f 85/249/59 87/250/59 83/251/59
f 87/250/59 81/252/59 83/251/59
f 88/253/60 86/254/60 82/255/60
f 86/254/60 84/256/60 82/255/60
f 87/257/61 88/258/61 81/259/61
f 88/258/61 82/260/61 81/259/61
f 83/261/62 84/262/62 85/263/62
f 84/262/62 86/264/62 85/263/62
f 89/265/63 90/266/63 91/267/63
f 90/266/63 92/268/63 91/267/63
f 93/269/64 94/270/64 95/271/64
f 94/270/64 96/272/64 95/271/64
f 93/273/65 95/274/65 91/275/65
f 95/274/65 89/276/65 91/275/65
f 96/277/66 94/278/66 90/279/66
f 94/278/66 92/280/66 90/279/66
f 95/281/67 96/282/67 89/283/67
f 96/282/67 90/284/67 89/283/67
f 91/285/68 92/286/68 93/287/68
f 92/286/68 94/288/68 93/287/68
o ArmLeft
v 0.475241 1.421335 -0.192140
v 0.306120 1.351283 -0.232722
v 0.444144 1.390766 -0.009781
v 0.275023 1.320714 -0.050363
v 0.643472 0.934194 -0.052326
v 0.474351 0.864141 -0.092908
v 0.674569 0.964762 -0.234685
v 0.505448 0.894710 -0.275267
v 0.709522 0.973511 -0.251064
v 0.484027 0.880107 -0.305174
v 0.633076 1.023216 -0.018287
v 0.407581 0.929813 -0.072397
v 0.728339 0.740083 0.073456
v 0.502844 0.646680 0.019346
v 0.804785 0.690377 -0.159321
v 0.579290 0.596974 -0.213431
vt 0.000122 0.546753
vt 0.000122 0.523560
vt 0.023315 0.546753
vt 0.023315 0.523560
vt 0.086060 0.546753
vt 0.086060 0.523560
vt 0.109253 0.546753
vt 0.109253 0.523560
vt 0.085815 0.546997
vt 0.085815 0.570190
vt 0.023560 0.546997
vt 0.023560 0.570190
vt 0.148315 0.570190
vt 0.148315 0.546997
vt 0.086060 0.570190
vt 0.086060 0.546997
vt 0.109497 0.546753
vt 0.109497 0.523560
vt 0.171753 0.546753
vt 0.171753 0.523560
vt 0.023560 0.546753
vt 0.023560 0.523560
vt 0.085815 0.546753
vt 0.085815 0.523560
vt 0.000122 0.492065
vt 0.000122 0.461060
vt 0.031128 0.492065
vt 0.031128 0.461060
vt 0.070435 0.492065
vt 0.070435 0.461060
vt 0.101440 0.492065
vt 0.101440 0.461060
vt 0.070190 0.492310
vt 0.070190 0.523315
vt 0.031372 0.492310
vt 0.031372 0.523315
vt 0.109253 0.523315
vt 0.109253 0.492310
vt 0.070435 0.523315
vt 0.070435 0.492310
vt 0.101685 0.492065
vt 0.101685 0.461060
vt 0.140503 0.492065
vt 0.140503 0.461060
vt 0.031372 0.492065
vt 0.031372 0.461060
vt 0.070190 0.492065
vt 0.070190 0.461060
vn -0.3987 0.9131 0.0851
vn 0.3987 -0.9131 -0.0851
vn 0.9020 0.3736 0.2164
vn -0.9020 -0.3736 -0.2164
vn 0.1659 0.1630 -0.9726
vn 0.1658 0.1630 -0.9726
vn -0.1659 -0.1630 0.9726
vn -0.1658 -0.1630 0.9726
vn -0.3048 0.9060 -0.2936
vn 0.3048 -0.9060 0.2936
vn 0.3058 -0.1988 -0.9311
vn -0.3058 0.1988 0.9311
usemtl m_4
s 1
f 97/289/69 98/290/69 99/291/69
f 98/290/69 100/292/69 99/291/69
f 101/293/70 102/294/70 103/295/70
f 102/294/70 104/296/70 103/295/70
f 101/297/71 103/298/71 99/299/71
f 103/298/71 97/300/71 99/299/71
f 104/301/72 102/302/72 98/303/72
f 102/302/72 100/304/72 98/303/72
f 103/305/73 104/306/73 97/307/74
f 104/306/73 98/308/74 97/307/74
f 99/309/75 100/310/75 101/311/75
f 100/310/75 102/312/76 101/311/75
f 105/313/77 106/314/77 107/315/77
f 106/314/77 108/316/77 107/315/77
f 109/317/78 110/318/78 111/319/78
f 110/318/78 112/320/78 111/319/78
f 109/321/71 111/322/71 107/323/71
f 111/322/71 105/324/71 107/323/71
f 112/325/72 110/326/72 106/327/72
f 110/326/72 108/328/72 106/327/72
f 111/329/79 112/330/79 105/331/79
f 112/330/79 106/332/79 105/331/79
f 107/333/80 108/334/80 109/335/80
f 108/334/80 110/336/80 109/335/80
o ArmLeftRibbon
v 0.272459 1.143372 -0.329874
v 0.424319 0.958167 -0.401553
v 0.269108 1.005639 0.018900
v 0.420968 0.820435 -0.052778
v 0.566976 1.216538 0.105048
v 0.718836 1.031334 0.033369
v 0.570327 1.354270 -0.243727
v 0.722187 1.169066 -0.315405
vt 0.000122 0.406128
vt 0.000122 0.375122
vt 0.046753 0.406128
vt 0.046753 0.375122
vt 0.093872 0.406128
vt 0.093872 0.375122
vt 0.140503 0.406128
vt 0.140503 0.375122
vt 0.093628 0.406372
vt 0.093628 0.453003
vt 0.046997 0.406372
vt 0.046997 0.453003
vt 0.140503 0.453003
vt 0.140503 0.406372
vt 0.093872 0.453003
vt 0.093872 0.406372
vt 0.140747 0.406128
vt 0.140747 0.375122
vt 0.187378 0.406128
vt 0.187378 0.375122
vt 0.046997 0.406128
vt 0.046997 0.375122
vt 0.093628 0.406128
vt 0.093628 0.375122
vn -0.7943 -0.5624 -0.2297
vn 0.7943 0.5624 0.2297
vn -0.6074 0.7408 0.2867
vn 0.6074 -0.7408 -0.2867
vn 0.0089 0.3673 -0.9301
vn -0.0089 -0.3673 0.9301
usemtl m_4
s 1
f 113/337/81 114/338/81 115/339/81
f 114/338/81 116/340/81 115/339/81
f 117/341/82 118/342/82 119/343/82
f 118/342/82 120/344/82 119/343/82
f 117/345/83 119/346/83 115/347/83
f 119/346/83 113/348/83 115/347/83
f 120/349/84 118/350/84 114/351/84
f 118/350/84 116/352/84 114/351/84
f 119/353/85 120/354/85 113/355/85
f 120/354/85 114/356/85 113/355/85
f 115/357/86 116/358/86 117/359/86
f 116/358/86 118/360/86 117/359/86
o ArmRight
v -0.300161 1.349268 -0.218374
v -0.469282 1.419320 -0.177791
v -0.269064 1.318699 -0.036015
v -0.438185 1.388751 0.004568
v -0.468392 0.862126 -0.078560
v -0.637513 0.932179 -0.037977
v -0.499489 0.892695 -0.260919
v -0.668610 0.962748 -0.220336
v -0.478068 0.878093 -0.290826
v -0.703563 0.971496 -0.236716
v -0.401622 0.927798 -0.058048
v -0.627117 1.021201 -0.003938
v -0.496885 0.644665 0.033695
v -0.722380 0.738068 0.087805
v -0.573331 0.594959 -0.199083
v -0.798826 0.688362 -0.144973
vt 0.406372 0.976440
vt 0.406372 0.953247
vt 0.429565 0.976440
vt 0.429565 0.953247
vt 0.492310 0.976440
vt 0.492310 0.953247
vt 0.515503 0.976440
vt 0.515503 0.953247
vt 0.492065 0.976685
vt 0.492065 0.999878
vt 0.429810 0.976685
vt 0.429810 0.999878
vt 0.554565 0.999878
vt 0.554565 0.976685
vt 0.492310 0.999878
vt 0.492310 0.976685
vt 0.515747 0.976440
vt 0.515747 0.953247
vt 0.578003 0.976440
vt 0.578003 0.953247
vt 0.429810 0.976440
vt 0.429810 0.953247
vt 0.492065 0.976440
vt 0.492065 0.953247
vt 0.140747 0.523315
vt 0.140747 0.492310
vt 0.171753 0.523315
vt 0.171753 0.492310
vt 0.211060 0.523315
vt 0.211060 0.492310
vt 0.242065 0.523315
vt 0.242065 0.492310
vt 0.210815 0.523560
vt 0.210815 0.554565
vt 0.171997 0.523560
vt 0.171997 0.554565
vt 0.249878 0.554565
vt 0.249878 0.523560
vt 0.211060 0.554565
vt 0.211060 0.523560
vt 0.242310 0.523315
vt 0.242310 0.492310
vt 0.281128 0.523315
vt 0.281128 0.492310
vt 0.171997 0.523315
vt 0.171997 0.492310
vt 0.210815 0.523315
vt 0.210815 0.492310
vn 0.3987 0.9131 0.0851
vn -0.3987 -0.9131 -0.0851
vn 0.9020 -0.3736 -0.2164
vn -0.9020 0.3736 0.2164
vn -0.1659 0.1630 -0.9726
vn 0.1659 -0.1630 0.9726
vn 0.3048 0.9060 -0.2936
vn -0.3048 -0.9060 0.2936
vn -0.3058 -0.1988 -0.9311
vn 0.3058 0.1988 0.9311
usemtl m_4
s 1
f 121/361/87 122/362/87 123/363/87
f 122/362/87 124/364/87 123/363/87
f 125/365/88 126/366/88 127/367/88
f 126/366/88 128/368/88 127/367/88
f 125/369/89 127/370/89 123/371/89
f 127/370/89 121/372/89 123/371/89
f 128/373/90 126/374/90 122/375/90
f 126/374/90 124/376/90 122/375/90
f 127/377/91 128/378/91 121/379/91
f 128/378/91 122/380/91 121/379/91
f 123/381/92 124/382/92 125/383/92
f 124/382/92 126/384/92 125/383/92
f 129/385/93 130/386/93 131/387/93
f 130/386/93 132/388/93 131/387/93
f 133/389/94 134/390/94 135/391/94
f 134/390/94 136/392/94 135/391/94
f 133/393/89 135/394/89 131/395/89
f 135/394/89 129/396/89 131/395/89
f 136/397/90 134/398/90 130/399/90
f 134/398/90 132/400/90 130/399/90
f 135/401/95 136/402/95 129/403/95
f 136/402/95 130/404/95 129/403/95
f 131/405/96 132/406/96 133/407/96
f 132/406/96 134/408/96 133/407/96
o ArmRightRibbon
v -0.605722 1.308391 -0.284639
v -0.753617 1.108417 -0.259389
v -0.513785 1.286216 0.078239
v -0.661680 1.086243 0.103489
v -0.225760 1.062258 -0.008419
v -0.373655 0.862285 0.016831
v -0.317697 1.084433 -0.371297
v -0.465592 0.884459 -0.346047
vt 0.218872 0.585815
vt 0.218872 0.554810
vt 0.265503 0.585815
vt 0.265503 0.554810
vt 0.312622 0.585815
vt 0.312622 0.554810
vt 0.359253 0.585815
vt 0.359253 0.554810
vt 0.312378 0.586060
vt 0.312378 0.632690
vt 0.265747 0.586060
vt 0.265747 0.632690
vt 0.359253 0.632690
vt 0.359253 0.586060
vt 0.312622 0.632690
vt 0.312622 0.586060
vt 0.359497 0.585815
vt 0.359497 0.554810
vt 0.406128 0.585815
vt 0.406128 0.554810
vt 0.265747 0.585815
vt 0.265747 0.554810
vt 0.312378 0.585815
vt 0.312378 0.554810
vn -0.7681 0.5972 0.2311
vn 0.7681 -0.5972 -0.2311
vn 0.5916 0.7999 -0.1010
vn -0.5916 -0.7999 0.1010
vn -0.2452 0.0591 -0.9677
vn 0.2452 -0.0591 0.9677
usemtl m_4
s 1
f 137/409/97 138/410/97 139/411/97
f 138/410/97 140/412/97 139/411/97
f 141/413/98 142/414/98 143/415/98
f 142/414/98 144/416/98 143/415/98
f 141/417/99 143/418/99 139/419/99
f 143/418/99 137/420/99 139/419/99
f 144/421/100 142/422/100 138/423/100
f 142/422/100 140/424/100 138/423/100
f 143/425/101 144/426/101 137/427/101
f 144/426/101 138/428/101 137/427/101
f 139/429/102 140/430/102 141/431/102
f 140/430/102 142/432/102 141/431/102
