# Blender v2.82 (sub 7) OBJ File: 'silex.blend'
# www.blender.org
mtllib silex.mtl
o Body
v -0.155972 0.269727 0.084204
v 0.156528 0.269727 0.084203
v 0.156528 0.706628 0.061306
v -0.155972 0.706628 0.061306
v 0.156528 0.246830 -0.352697
v -0.155972 0.246830 -0.352697
v -0.155972 0.683731 -0.375594
v 0.156528 0.683731 -0.375594
v -0.187222 0.248208 0.232199
v 0.187778 0.248208 0.232199
v 0.187778 0.682446 0.285516
v -0.187222 0.682446 0.285516
v 0.187778 0.286292 -0.077972
v -0.187222 0.286292 -0.077971
v -0.187222 0.720531 -0.024654
v 0.187778 0.720531 -0.024654
v -0.249722 0.299719 0.673923
v 0.250278 0.299719 0.673923
v 0.250278 0.547126 0.638007
v -0.249722 0.547126 0.638007
v 0.250278 0.227887 0.179110
v -0.249722 0.227887 0.179110
v -0.249722 0.475293 0.143193
v 0.250278 0.475293 0.143193
v -0.218472 0.317443 0.498509
v 0.219028 0.317443 0.498509
v 0.219028 0.542637 0.607081
v -0.218472 0.542637 0.607081
v 0.219028 0.480301 0.160718
v -0.218472 0.480301 0.160718
v -0.218472 0.705494 0.269291
v 0.219028 0.705494 0.269291
v -0.031597 0.444120 0.526393
v 0.030903 0.444120 0.526393
v 0.030903 0.548065 0.595821
v -0.031597 0.548065 0.595821
v 0.030903 0.617691 0.266529
v -0.031597 0.617691 0.266529
v -0.031597 0.721635 0.335957
v 0.030903 0.721635 0.335957
v -0.218472 0.250394 0.645025
v 0.219028 0.250394 0.645025
v 0.219028 0.312894 0.644742
v -0.218472 0.312894 0.644742
v 0.219028 0.248693 0.270030
v -0.218472 0.248693 0.270030
v -0.218472 0.311191 0.269746
v 0.219028 0.311191 0.269746
v 0.184527 0.231862 0.225022
v 0.237073 0.251125 0.252843
v 0.180889 0.429184 0.235667
v 0.128343 0.409919 0.207845
v 0.406185 0.272264 -0.081191
v 0.353639 0.253000 -0.109014
v 0.297454 0.431058 -0.126190
v 0.350000 0.450322 -0.098368
v 0.131487 0.416792 0.209339
v 0.186290 0.436289 0.232202
v 0.169681 0.495575 0.221454
v 0.114878 0.476077 0.198590
v 0.286454 0.422892 0.003537
v 0.231651 0.403395 -0.019326
v 0.215043 0.462681 -0.030074
v 0.269845 0.482179 -0.007211
v -0.236517 0.251125 0.252843
v -0.183971 0.231862 0.225022
v -0.127787 0.409919 0.207845
v -0.180333 0.429184 0.235667
v -0.353083 0.253000 -0.109014
v -0.405629 0.272264 -0.081191
v -0.349445 0.450322 -0.098368
v -0.296898 0.431058 -0.126190
v -0.185734 0.436289 0.232202
v -0.130931 0.416792 0.209339
v -0.114322 0.476077 0.198590
v -0.169125 0.495575 0.221454
v -0.231096 0.403395 -0.019326
v -0.285898 0.422892 0.003537
v -0.269289 0.482179 -0.007211
v -0.214487 0.462681 -0.030074
v -0.030972 0.590946 0.280175
v 0.031528 0.590946 0.280175
v 0.031528 0.705368 0.330498
v -0.030972 0.705368 0.330498
v 0.031528 0.691592 0.051330
v -0.030972 0.691592 0.051330
v -0.030972 0.806015 0.101653
v 0.031528 0.806015 0.101653
v -0.124722 0.275713 -0.308226
v 0.125278 0.275714 -0.308226
v 0.125278 0.650485 -0.295140
v -0.124722 0.650485 -0.295140
v 0.125278 0.286620 -0.620537
v -0.124722 0.286620 -0.620537
v -0.124722 0.661391 -0.607450
v 0.125278 0.661391 -0.607450
v -0.093472 0.373551 -0.566101
v 0.094028 0.373551 -0.566101
v 0.094028 0.621688 -0.535635
v -0.093472 0.621688 -0.535635
v 0.094028 0.419252 -0.938307
v -0.093472 0.419252 -0.938307
v -0.093472 0.667389 -0.907840
v 0.094028 0.667389 -0.907840
v -0.031597 0.311061 -0.565010
v 0.030903 0.311061 -0.565010
v 0.030903 0.436042 -0.567192
v -0.031597 0.436042 -0.567192
v 0.030903 0.305607 -0.877464
v -0.031597 0.305607 -0.877464
v -0.031597 0.430588 -0.879645
v 0.030903 0.430588 -0.879645
v -0.030972 0.372410 -0.872126
v 0.031528 0.372410 -0.872126
v 0.031528 0.613891 -0.807422
v -0.030972 0.613891 -0.807422
v 0.031528 0.485643 -1.294718
v -0.030972 0.485643 -1.294718
v -0.030972 0.727125 -1.230014
v 0.031528 0.727125 -1.230014
v -0.031597 0.530902 -0.557716
v 0.030903 0.530902 -0.557716
v 0.030903 0.650440 -0.521170
v -0.031597 0.650440 -0.521170
v 0.030903 0.658814 -0.976100
v -0.031597 0.658814 -0.976100
v -0.031597 0.778352 -0.939553
v 0.030903 0.778352 -0.939553
v -0.030972 0.592135 -0.345685
v 0.031528 0.592135 -0.345685
v 0.031528 0.711017 -0.307057
v -0.030972 0.711017 -0.307057
v 0.031528 0.708016 -0.702331
v -0.030972 0.708016 -0.702331
v -0.030972 0.826898 -0.663704
v 0.031528 0.826898 -0.663704
v -0.031597 0.553624 0.034823
v 0.030903 0.553624 0.034823
v 0.030903 0.736319 0.077001
v -0.031597 0.736319 0.077001
v 0.030903 0.637981 -0.330566
v -0.031597 0.637981 -0.330566
v -0.031597 0.820675 -0.288387
v 0.030903 0.820675 -0.288387
vt 0.100000 0.720000
vt 0.171429 0.720000
vt 0.171429 0.860000
vt 0.100000 0.860000
vt 0.271429 0.720000
vt 0.342857 0.720000
vt 0.342857 0.860000
vt 0.271429 0.860000
vt 0.171429 1.000000
vt 0.100000 1.000000
vt 0.171429 1.000000
vt 0.242857 1.000000
vt 0.242857 0.860000
vt 0.171429 0.860000
vt 0.000000 0.720000
vt 0.000000 0.860000
vt 0.071429 0.480000
vt 0.157143 0.480000
vt 0.157143 0.620000
vt 0.071429 0.620000
vt 0.228571 0.480000
vt 0.314286 0.480000
vt 0.314286 0.620000
vt 0.228571 0.620000
vt 0.157143 0.720000
vt 0.071429 0.720000
vt 0.157143 0.720000
vt 0.242857 0.720000
vt 0.242857 0.620000
vt 0.157143 0.620000
vt 0.000000 0.480000
vt 0.000000 0.620000
vt 0.114286 0.240000
vt 0.228571 0.240000
vt 0.228571 0.320000
vt 0.114286 0.320000
vt 0.342857 0.240000
vt 0.457143 0.240000
vt 0.457143 0.320000
vt 0.342857 0.320000
vt 0.228571 0.480000
vt 0.114286 0.480000
vt 0.228571 0.480000
vt 0.342857 0.480000
vt 0.342857 0.320000
vt 0.228571 0.320000
vt 0.000000 0.240000
vt 0.000000 0.320000
vt 0.085714 0.040000
vt 0.185714 0.040000
vt 0.185714 0.120000
vt 0.085714 0.120000
vt 0.271429 0.040000
vt 0.371429 0.040000
vt 0.371429 0.120000
vt 0.271429 0.120000
vt 0.185714 0.240000
vt 0.085714 0.240000
vt 0.185714 0.240000
vt 0.285714 0.240000
vt 0.285714 0.120000
vt 0.185714 0.120000
vt 0.000000 0.040000
vt 0.000000 0.120000
vt 0.457143 0.200000
vt 0.471429 0.200000
vt 0.471429 0.240000
vt 0.457143 0.240000
vt 0.542857 0.200000
vt 0.557143 0.200000
vt 0.557143 0.240000
vt 0.542857 0.240000
vt 0.471429 0.340000
vt 0.457143 0.340000
vt 0.471429 0.340000
vt 0.485714 0.340000
vt 0.485714 0.240000
vt 0.471429 0.240000
vt 0.385714 0.200000
vt 0.385714 0.240000
vt 0.557143 0.180000
vt 0.657143 0.180000
vt 0.657143 0.200000
vt 0.557143 0.200000
vt 0.742857 0.180000
vt 0.842857 0.180000
vt 0.842857 0.200000
vt 0.742857 0.200000
vt 0.657143 0.320000
vt 0.557143 0.320000
vt 0.657143 0.320000
vt 0.757143 0.320000
vt 0.757143 0.200000
vt 0.657143 0.200000
vt 0.471429 0.180000
vt 0.471429 0.200000
vt 0.457143 0.000000
vt 0.471429 0.000000
vt 0.471429 0.060000
vt 0.457143 0.060000
vt 0.557143 0.000000
vt 0.571429 0.000000
vt 0.571429 0.060000
vt 0.557143 0.060000
vt 0.471429 0.180000
vt 0.457143 0.180000
vt 0.471429 0.180000
vt 0.485714 0.180000
vt 0.485714 0.060000
vt 0.471429 0.060000
vt 0.371429 0.000000
vt 0.371429 0.060000
vt 0.357143 0.120000
vt 0.371429 0.120000
vt 0.371429 0.140000
vt 0.357143 0.140000
vt 0.428571 0.120000
vt 0.442857 0.120000
vt 0.442857 0.140000
vt 0.428571 0.140000
vt 0.371429 0.220000
vt 0.357143 0.220000
vt 0.371429 0.220000
vt 0.385714 0.220000
vt 0.385714 0.140000
vt 0.371429 0.140000
vt 0.300000 0.120000
vt 0.300000 0.140000
vt 0.471429 0.000000
vt 0.457143 0.000000
vt 0.457143 0.060000
vt 0.471429 0.060000
vt 0.571429 0.000000
vt 0.557143 0.000000
vt 0.557143 0.060000
vt 0.571429 0.060000
vt 0.457143 0.180000
vt 0.471429 0.180000
vt 0.485714 0.180000
vt 0.471429 0.180000
vt 0.471429 0.060000
vt 0.485714 0.060000
vt 0.371429 0.000000
vt 0.371429 0.060000
vt 0.371429 0.120000
vt 0.357143 0.120000
vt 0.357143 0.140000
vt 0.371429 0.140000
vt 0.442857 0.120000
vt 0.428571 0.120000
vt 0.428571 0.140000
vt 0.442857 0.140000
vt 0.357143 0.220000
vt 0.371429 0.220000
vt 0.385714 0.220000
vt 0.371429 0.220000
vt 0.371429 0.140000
vt 0.385714 0.140000
vt 0.300000 0.120000
vt 0.300000 0.140000
vt 0.857143 0.400000
vt 0.871429 0.400000
vt 0.871429 0.440000
vt 0.857143 0.440000
vt 0.928571 0.400000
vt 0.942857 0.400000
vt 0.942857 0.440000
vt 0.928571 0.440000
vt 0.871429 0.520000
vt 0.857143 0.520000
vt 0.871429 0.520000
vt 0.885714 0.520000
vt 0.885714 0.440000
vt 0.871429 0.440000
vt 0.800000 0.400000
vt 0.800000 0.440000
vt 0.414286 0.780000
vt 0.471429 0.780000
vt 0.471429 0.900000
vt 0.414286 0.900000
vt 0.542857 0.780000
vt 0.600000 0.780000
vt 0.600000 0.900000
vt 0.542857 0.900000
vt 0.471429 1.000000
vt 0.414286 1.000000
vt 0.471429 1.000000
vt 0.528571 1.000000
vt 0.528571 0.900000
vt 0.471429 0.900000
vt 0.342857 0.780000
vt 0.342857 0.900000
vt 0.685714 0.800000
vt 0.728571 0.800000
vt 0.728571 0.880000
vt 0.685714 0.880000
vt 0.814286 0.800000
vt 0.857143 0.800000
vt 0.857143 0.880000
vt 0.814286 0.880000
vt 0.728571 1.000000
vt 0.685714 1.000000
vt 0.728571 1.000000
vt 0.771429 1.000000
vt 0.771429 0.880000
vt 0.728571 0.880000
vt 0.600000 0.800000
vt 0.600000 0.880000
vt 0.342857 0.620000
vt 0.357143 0.620000
vt 0.357143 0.660000
vt 0.342857 0.660000
vt 0.428571 0.620000
vt 0.442857 0.620000
vt 0.442857 0.660000
vt 0.428571 0.660000
vt 0.357143 0.760000
vt 0.342857 0.760000
vt 0.357143 0.760000
vt 0.371429 0.760000
vt 0.371429 0.660000
vt 0.357143 0.660000
vt 0.271429 0.620000
vt 0.271429 0.660000
vt 0.857143 0.720000
vt 0.871429 0.720000
vt 0.871429 0.800000
vt 0.857143 0.800000
vt 0.971429 0.720000
vt 0.985714 0.720000
vt 0.985714 0.800000
vt 0.971429 0.800000
vt 0.871429 0.940000
vt 0.857143 0.940000
vt 0.871429 0.940000
vt 0.885714 0.940000
vt 0.885714 0.800000
vt 0.871429 0.800000
vt 0.757143 0.720000
vt 0.757143 0.800000
vt 0.728571 0.620000
vt 0.742857 0.620000
vt 0.742857 0.660000
vt 0.728571 0.660000
vt 0.842857 0.620000
vt 0.857143 0.620000
vt 0.857143 0.660000
vt 0.842857 0.660000
vt 0.742857 0.800000
vt 0.728571 0.800000
vt 0.742857 0.800000
vt 0.757143 0.800000
vt 0.757143 0.660000
vt 0.742857 0.660000
vt 0.628571 0.620000
vt 0.628571 0.660000
vt 0.857143 0.560000
vt 0.871429 0.560000
vt 0.871429 0.600000
vt 0.857143 0.600000
vt 0.957143 0.560000
vt 0.971429 0.560000
vt 0.971429 0.600000
vt 0.957143 0.600000
vt 0.871429 0.720000
vt 0.857143 0.720000
vt 0.871429 0.720000
vt 0.885714 0.720000
vt 0.885714 0.600000
vt 0.871429 0.600000
vt 0.771429 0.560000
vt 0.771429 0.600000
vt 0.742857 0.440000
vt 0.757143 0.440000
vt 0.757143 0.500000
vt 0.742857 0.500000
vt 0.842857 0.440000
vt 0.857143 0.440000
vt 0.857143 0.500000
vt 0.842857 0.500000
vt 0.757143 0.620000
vt 0.742857 0.620000
vt 0.757143 0.620000
vt 0.771429 0.620000
vt 0.771429 0.500000
vt 0.757143 0.500000
vt 0.657143 0.440000
vt 0.657143 0.500000
vn 0.0000 0.0523 0.9986
vn 0.0000 -0.0523 -0.9986
vn -0.0000 0.9986 -0.0523
vn 0.0000 -0.9986 0.0523
vn -1.0000 0.0000 0.0000
vn 1.0000 0.0000 -0.0000
vn 0.0000 -0.1219 0.9925
vn -0.0000 0.1219 -0.9925
vn 0.0000 0.9925 0.1219
vn -0.0000 -0.9925 -0.1219
vn 0.0000 0.1437 0.9896
vn -0.0000 -0.1437 -0.9896
vn -0.0000 0.9896 -0.1437
vn 0.0000 -0.9896 0.1437
vn 0.0000 -0.4343 0.9008
vn -0.0000 0.4343 -0.9008
vn 0.0000 0.9008 0.4343
vn 0.0000 -0.9008 -0.4343
vn 0.0000 -0.5554 0.8316
vn 0.0000 0.5554 -0.8316
vn 0.0000 0.8316 0.5554
vn 0.0000 -0.8316 -0.5554
vn 0.0000 0.0045 1.0000
vn -0.0000 -0.0045 -1.0000
vn -0.0000 1.0000 -0.0045
vn 0.0000 -1.0000 0.0045
vn -0.4510 -0.0564 0.8908
vn 0.4510 0.0564 -0.8908
vn -0.2997 0.9496 -0.0916
vn 0.2996 -0.9496 0.0916
vn -0.8407 -0.3082 -0.4451
vn 0.8407 0.3082 0.4451
vn -0.4007 0.0536 0.9147
vn 0.4007 -0.0536 -0.9147
vn -0.2657 0.9486 -0.1720
vn 0.2657 -0.9486 0.1720
vn -0.8768 -0.3120 -0.3658
vn 0.8768 0.3120 0.3658
vn 0.4510 -0.0564 0.8908
vn -0.4510 0.0564 -0.8908
vn 0.2996 0.9496 -0.0916
vn -0.2996 -0.9496 0.0916
vn -0.8407 0.3082 0.4451
vn 0.8407 -0.3082 -0.4451
vn 0.4007 0.0536 0.9147
vn -0.4007 -0.0536 -0.9147
vn 0.2657 0.9486 -0.1720
vn -0.2657 -0.9486 0.1720
vn -0.8768 0.3120 0.3658
vn 0.8768 -0.3120 -0.3658
vn 0.0000 -0.4026 0.9154
vn 0.0000 0.4026 -0.9154
vn 0.0000 0.9154 0.4026
vn 0.0000 -0.9154 -0.4026
vn 0.0000 -0.0349 0.9994
vn 0.0000 0.0349 -0.9994
vn 0.0000 0.9994 0.0349
vn 0.0000 -0.9994 -0.0349
vn 0.0000 0.0175 0.9998
vn 0.0000 -0.0174 -0.9998
vn 0.0000 0.9998 -0.0175
vn 0.0000 -0.9998 0.0175
vn 0.0000 -0.2588 0.9659
vn 0.0000 0.2588 -0.9659
vn 0.0000 0.9659 0.2588
vn 0.0000 -0.9659 -0.2588
vn 0.0000 -0.2924 0.9563
vn 0.0000 0.2924 -0.9563
vn 0.0000 0.9563 0.2924
vn 0.0000 -0.9563 -0.2924
vn 0.0000 -0.3090 0.9511
vn 0.0000 0.3090 -0.9511
vn 0.0000 0.9511 0.3090
vn 0.0000 -0.9511 -0.3090
vn 0.0000 -0.2249 0.9744
vn 0.0000 0.2250 -0.9744
vn 0.0000 0.9744 0.2249
vn 0.0000 -0.9744 -0.2250
usemtl Default_OBJ
s off
f 1/1/1 2/2/1 3/3/1 4/4/1
f 5/5/2 6/6/2 7/7/2 8/8/2
f 4/4/3 3/3/3 8/9/3 7/10/3
f 6/11/4 5/12/4 2/13/4 1/14/4
f 6/15/5 1/1/5 4/4/5 7/16/5
f 2/2/6 5/5/6 8/8/6 3/3/6
f 9/17/7 10/18/7 11/19/7 12/20/7
f 13/21/8 14/22/8 15/23/8 16/24/8
f 12/20/9 11/19/9 16/25/9 15/26/9
f 14/27/10 13/28/10 10/29/10 9/30/10
f 14/31/5 9/17/5 12/20/5 15/32/5
f 10/18/6 13/21/6 16/24/6 11/19/6
f 17/33/11 18/34/11 19/35/11 20/36/11
f 21/37/12 22/38/12 23/39/12 24/40/12
f 20/36/13 19/35/13 24/41/13 23/42/13
f 22/43/14 21/44/14 18/45/14 17/46/14
f 22/47/5 17/33/5 20/36/5 23/48/5
f 18/34/6 21/37/6 24/40/6 19/35/6
f 25/49/15 26/50/15 27/51/15 28/52/15
f 29/53/16 30/54/16 31/55/16 32/56/16
f 28/52/17 27/51/17 32/57/17 31/58/17
f 30/59/18 29/60/18 26/61/18 25/62/18
f 30/63/5 25/49/5 28/52/5 31/64/5
f 26/50/6 29/53/6 32/56/6 27/51/6
f 33/65/19 34/66/19 35/67/19 36/68/19
f 37/69/20 38/70/20 39/71/20 40/72/20
f 36/68/21 35/67/21 40/73/21 39/74/21
f 38/75/22 37/76/22 34/77/22 33/78/22
f 38/79/5 33/65/5 36/68/5 39/80/5
f 34/66/6 37/69/6 40/72/6 35/67/6
f 41/81/23 42/82/23 43/83/23 44/84/23
f 45/85/24 46/86/24 47/87/24 48/88/24
f 44/84/25 43/83/25 48/89/25 47/90/25
f 46/91/26 45/92/26 42/93/26 41/94/26
f 46/95/5 41/81/5 44/84/5 47/96/5
f 42/82/6 45/85/6 48/88/6 43/83/6
f 49/97/27 50/98/27 51/99/27 52/100/27
f 53/101/28 54/102/28 55/103/28 56/104/28
f 52/100/29 51/99/29 56/105/29 55/106/29
f 54/107/30 53/108/30 50/109/30 49/110/30
f 54/111/31 49/97/31 52/100/31 55/112/31
f 50/98/32 53/101/32 56/104/32 51/99/32
f 57/113/33 58/114/33 59/115/33 60/116/33
f 61/117/34 62/118/34 63/119/34 64/120/34
f 60/116/35 59/115/35 64/121/35 63/122/35
f 62/123/36 61/124/36 58/125/36 57/126/36
f 62/127/37 57/113/37 60/116/37 63/128/37
f 58/114/38 61/117/38 64/120/38 59/115/38
f 65/129/39 66/130/39 67/131/39 68/132/39
f 69/133/40 70/134/40 71/135/40 72/136/40
f 68/132/41 67/131/41 72/137/41 71/138/41
f 70/139/42 69/140/42 66/141/42 65/142/42
f 70/134/43 65/129/43 68/132/43 71/135/43
f 66/130/44 69/143/44 72/144/44 67/131/44
f 73/145/45 74/146/45 75/147/45 76/148/45
f 77/149/46 78/150/46 79/151/46 80/152/46
f 76/148/47 75/147/47 80/153/47 79/154/47
f 78/155/48 77/156/48 74/157/48 73/158/48
f 78/150/49 73/145/49 76/148/49 79/151/49
f 74/146/50 77/159/50 80/160/50 75/147/50
f 81/161/51 82/162/51 83/163/51 84/164/51
f 85/165/52 86/166/52 87/167/52 88/168/52
f 84/164/53 83/163/53 88/169/53 87/170/53
f 86/171/54 85/172/54 82/173/54 81/174/54
f 86/175/5 81/161/5 84/164/5 87/176/5
f 82/162/6 85/165/6 88/168/6 83/163/6
f 89/177/55 90/178/55 91/179/55 92/180/55
f 93/181/56 94/182/56 95/183/56 96/184/56
f 92/180/57 91/179/57 96/185/57 95/186/57
f 94/187/58 93/188/58 90/189/58 89/190/58
f 94/191/5 89/177/5 92/180/5 95/192/5
f 90/178/6 93/181/6 96/184/6 91/179/6
f 97/193/7 98/194/7 99/195/7 100/196/7
f 101/197/8 102/198/8 103/199/8 104/200/8
f 100/196/9 99/195/9 104/201/9 103/202/9
f 102/203/10 101/204/10 98/205/10 97/206/10
f 102/207/5 97/193/5 100/196/5 103/208/5
f 98/194/6 101/197/6 104/200/6 99/195/6
f 105/209/59 106/210/59 107/211/59 108/212/59
f 109/213/60 110/214/60 111/215/60 112/216/60
f 108/212/61 107/211/61 112/217/61 111/218/61
f 110/219/62 109/220/62 106/221/62 105/222/62
f 110/223/5 105/209/5 108/212/5 111/224/5
f 106/210/6 109/213/6 112/216/6 107/211/6
f 113/225/63 114/226/63 115/227/63 116/228/63
f 117/229/64 118/230/64 119/231/64 120/232/64
f 116/228/65 115/227/65 120/233/65 119/234/65
f 118/235/66 117/236/66 114/237/66 113/238/66
f 118/239/5 113/225/5 116/228/5 119/240/5
f 114/226/6 117/229/6 120/232/6 115/227/6
f 121/241/67 122/242/67 123/243/67 124/244/67
f 125/245/68 126/246/68 127/247/68 128/248/68
f 124/244/69 123/243/69 128/249/69 127/250/69
f 126/251/70 125/252/70 122/253/70 121/254/70
f 126/255/5 121/241/5 124/244/5 127/256/5
f 122/242/6 125/245/6 128/248/6 123/243/6
f 129/257/71 130/258/71 131/259/71 132/260/71
f 133/261/72 134/262/72 135/263/72 136/264/72
f 132/260/73 131/259/73 136/265/73 135/266/73
f 134/267/74 133/268/74 130/269/74 129/270/74
f 134/271/5 129/257/5 132/260/5 135/272/5
f 130/258/6 133/261/6 136/264/6 131/259/6
f 137/273/75 138/274/75 139/275/75 140/276/75
f 141/277/76 142/278/76 143/279/76 144/280/76
f 140/276/77 139/275/77 144/281/77 143/282/77
f 142/283/78 141/284/78 138/285/78 137/286/78
f 142/287/5 137/273/5 140/276/5 143/288/5
f 138/274/6 141/277/6 144/280/6 139/275/6
